<svg xmlns="http://www.w3.org/2000/svg" viewBox="0 0 300 430" width="300" height="430" role="img" aria-label="Player card: Haseeb Qureshi">
  <defs>
    <linearGradient id="gold" x1="0" y1="0" x2="0.6" y2="1">
      <stop offset="0" stop-color="#fff4c2"/><stop offset="0.35" stop-color="#f4d264"/><stop offset="0.7" stop-color="#e7b53a"/><stop offset="1" stop-color="#caa12c"/>
    </linearGradient>
    <linearGradient id="shine" x1="0" y1="0" x2="1" y2="1">
      <stop offset="0" stop-color="#ffffff" stop-opacity="0"/><stop offset="0.5" stop-color="#ffffff" stop-opacity="0.55"/><stop offset="1" stop-color="#ffffff" stop-opacity="0"/>
    </linearGradient>
    <clipPath id="card"><path d="M150 6 L284 40 V250 Q284 360 150 424 Q16 360 16 250 V40 Z"/></clipPath>
    <style>
      .shine { animation: shine 4.5s ease-in-out infinite; }
      @keyframes shine { 0%,55% { transform: translateX(-360px); } 80%,100% { transform: translateX(360px); } }
    </style>
  </defs>
  <g clip-path="url(#card)">
    <path d="M150 6 L284 40 V250 Q284 360 150 424 Q16 360 16 250 V40 Z" fill="url(#gold)"/>
    <!-- rating + position -->
    <text x="56" y="78" text-anchor="middle" font-size="40" font-weight="900" fill="#3a2a06" font-family="'Sora','Segoe UI',sans-serif">92</text>
    <text x="56" y="100" text-anchor="middle" font-size="16" font-weight="800" fill="#4a3606">RW</text>
    <line x1="40" y1="110" x2="72" y2="110" stroke="#4a3606" stroke-width="1.4"/>
    <!-- crest emblem (mini) -->
    <circle cx="56" cy="132" r="12" fill="#A50044"/><rect x="50" y="120" width="3.5" height="24" fill="#004D98"/><rect x="58" y="120" width="3.5" height="24" fill="#004D98"/>
    <circle cx="56" cy="160" r="11" fill="#c0392b"/><path d="M50 156 h12 v8 h-12 z" fill="#f5c542"/>
    <!-- avatar illustration -->
    <g transform="translate(178,150)">
      <ellipse cx="0" cy="6" rx="46" ry="52" fill="#e7b489"/>
      <path d="M-46 4 Q-50 -46 0 -52 Q50 -46 46 4 Q30 -30 0 -32 Q-30 -30 -46 4 Z" fill="#5b5b5b"/>
      <path d="M-15 -30 q15 -10 30 0 q-15 -4 -30 0 z" fill="#2a2a2a"/>
      <rect x="-9" y="-34" width="11" height="6" rx="2" fill="#cfa53a"/>
      <path d="M-26 6 q8 -7 17 0" stroke="#2a1c10" stroke-width="3.2" fill="none" stroke-linecap="round"/>
      <path d="M9 6 q8 -7 17 0" stroke="#2a1c10" stroke-width="3.2" fill="none" stroke-linecap="round"/>
      <ellipse cx="-16" cy="16" rx="3.4" ry="3" fill="#2a1c10"/><ellipse cx="17" cy="16" rx="3.4" ry="3" fill="#2a1c10"/>
      <path d="M-4 22 q4 5 8 0" stroke="#9c6b3e" stroke-width="2.4" fill="none" stroke-linecap="round"/>
      <path d="M-16 38 q16 9 32 0" stroke="#2a1c10" stroke-width="4" fill="none" stroke-linecap="round"/>
      <path d="M-9 34 q9 4 18 0 q-3 16 -9 22 q-6 -6 -9 -22 z" fill="#2a1c10"/>
    </g>
    <!-- name -->
    <line x1="40" y1="252" x2="260" y2="252" stroke="#4a3606" stroke-width="1.4" opacity="0.6"/>
    <text x="150" y="276" text-anchor="middle" font-size="22" font-weight="900" fill="#3a2a06" font-family="'Sora','Segoe UI',sans-serif" letter-spacing="1">HASEEB QURESHI</text>
    <line x1="40" y1="288" x2="260" y2="288" stroke="#4a3606" stroke-width="1" opacity="0.5"/>
    
    <text x="74" y="300" text-anchor="end" font-size="17" font-weight="800" fill="#3a2a06">94</text>
    <text x="80" y="300" font-size="13" font-weight="700" fill="#5a4408">DES</text>
    <text x="196" y="300" text-anchor="end" font-size="17" font-weight="800" fill="#3a2a06">88</text>
    <text x="202" y="300" font-size="13" font-weight="700" fill="#5a4408">SHP</text>
    <text x="74" y="326" text-anchor="end" font-size="17" font-weight="800" fill="#3a2a06">92</text>
    <text x="80" y="326" font-size="13" font-weight="700" fill="#5a4408">UX</text>
    <text x="196" y="326" text-anchor="end" font-size="17" font-weight="800" fill="#3a2a06">87</text>
    <text x="202" y="326" font-size="13" font-weight="700" fill="#5a4408">SYS</text>
    <text x="74" y="352" text-anchor="end" font-size="17" font-weight="800" fill="#3a2a06">90</text>
    <text x="80" y="352" font-size="13" font-weight="700" fill="#5a4408">COD</text>
    <text x="196" y="352" text-anchor="end" font-size="17" font-weight="800" fill="#3a2a06">93</text>
    <text x="202" y="352" font-size="13" font-weight="700" fill="#5a4408">CRT</text>
    <line x1="150" y1="282" x2="150" y2="356" stroke="#4a3606" stroke-width="1" opacity="0.4"/>
    <text x="150" y="392" text-anchor="middle" font-size="12" font-weight="800" fill="#4a3606" letter-spacing="2">PRODUCT DESIGNER &amp; DEVELOPER</text>
    <text x="150" y="408" text-anchor="middle" font-size="9.5" font-weight="700" fill="#6a5210" letter-spacing="3">FC BARCELONA</text>
    <rect class="shine" x="-160" y="-40" width="120" height="520" transform="rotate(18 150 215)" fill="url(#shine)"/>
  </g>
  <path d="M150 6 L284 40 V250 Q284 360 150 424 Q16 360 16 250 V40 Z" fill="none" stroke="#a8841f" stroke-width="2"/>
</svg>
