<svg xmlns="http://www.w3.org/2000/svg" viewBox="0 0 880 58" width="880" height="58" role="img" aria-label="HONOURS">
  <defs><radialGradient id="vig" cx="50%" cy="36%" r="75%"><stop offset="0" stop-color="#000" stop-opacity="0"/><stop offset="1" stop-color="#000" stop-opacity="0.45"/></radialGradient><linearGradient id="gg" x1="0" y1="0" x2="0" y2="1"><stop offset="0" stop-color="#ffe9a8"/><stop offset="0.5" stop-color="#f2c94c"/><stop offset="1" stop-color="#b8911f"/></linearGradient><clipPath id="h"><rect width="880" height="58" rx="12"/></clipPath><style>text{font-family:'Sora','Segoe UI',sans-serif}</style></defs>
  <g clip-path="url(#h)">
    <rect width="880" height="58" fill="#0a0e1c"/>
    <polygon points="0,0 545.6,0 0,58" fill="#0e1a40"/>
    <polygon points="880,0 880,58 422.4,58" fill="#2c0a20"/>
    <polygon points="0,0 264,0 0,38.28" fill="#15307a" opacity="0.85"/>
    <polygon points="880,58 880,24.36 651.2,58" fill="#580a30" opacity="0.85"/>
    <polygon points="404.8,0 440,0 132,58 96.8,58" fill="#1fc7dd" opacity="0.15"/>
    <polygon points="501.6,0 528,0 220,58 193.6,58" fill="#f2c94c" opacity="0.14"/>
    <rect width="880" height="58" fill="url(#vig)"/><rect width="7" height="58" fill="url(#gg)"/><circle cx="34" cy="29" r="3.5" fill="#1fc7dd"/>
  <text x="52" y="35" font-size="20" font-weight="900" fill="#fff" letter-spacing="3">HONOURS</text>
  <text x="856" y="34" text-anchor="end" font-size="12" font-weight="800" fill="#f2c94c" letter-spacing="2">TROPHY CABINET</text></g>
  <rect x="1.5" y="1.5" width="877" height="55" rx="12" fill="none" stroke="url(#gg)" stroke-width="2"/></svg>