<svg xmlns="http://www.w3.org/2000/svg" viewBox="0 0 880 185" width="880" height="185" role="img" aria-label="Haseeb Qureshi — Product Designer & Developer">
  <defs><radialGradient id="vig" cx="50%" cy="36%" r="75%"><stop offset="0" stop-color="#000" stop-opacity="0"/><stop offset="1" stop-color="#000" stop-opacity="0.45"/></radialGradient><linearGradient id="gg" x1="0" y1="0" x2="0" y2="1"><stop offset="0" stop-color="#ffe9a8"/><stop offset="0.5" stop-color="#f2c94c"/><stop offset="1" stop-color="#b8911f"/></linearGradient><linearGradient id="sh" x1="0" y1="0" x2="1" y2="1"><stop offset="0" stop-color="#fff" stop-opacity="0"/><stop offset="0.5" stop-color="#fff" stop-opacity="0.30"/><stop offset="1" stop-color="#fff" stop-opacity="0"/></linearGradient><clipPath id="ch"><rect width="880" height="185" rx="16"/></clipPath><style>.sh{animation:s 6s ease-in-out infinite}@keyframes s{0%,55%{transform:translateX(-360px)}82%,100%{transform:translateX(940px)}}text{font-family:'Sora','Segoe UI',sans-serif}</style></defs>
  <g clip-path="url(#ch)">
    <rect width="880" height="185" fill="#0a0e1c"/>
    <polygon points="0,0 545.6,0 0,185" fill="#0e1a40"/>
    <polygon points="880,0 880,185 422.4,185" fill="#2c0a20"/>
    <polygon points="0,0 264,0 0,122.1" fill="#15307a" opacity="0.85"/>
    <polygon points="880,185 880,77.7 651.2,185" fill="#580a30" opacity="0.85"/>
    <polygon points="404.8,0 440,0 132,185 96.8,185" fill="#1fc7dd" opacity="0.15"/>
    <polygon points="501.6,0 528,0 220,185 193.6,185" fill="#f2c94c" opacity="0.14"/>
    <rect width="880" height="185" fill="url(#vig)"/>
    <g transform="translate(74,96) scale(2)"><circle r="13" fill="#A50044"/><rect x="-7" y="-13" width="3.6" height="26" fill="#004D98"/><rect x="1" y="-13" width="3.6" height="26" fill="#004D98"/><path d="M-13 -2 h26" stroke="#f5c542" stroke-width="3"/><circle r="13" fill="none" stroke="#f5c542" stroke-width="1.3"/></g>
    <text x="134" y="84" font-size="46" font-weight="900" fill="#fff" letter-spacing="0.5" font-family="'Sora',sans-serif">HASEEB QURESHI</text>
    <text x="136" y="114" font-size="17" font-weight="700" fill="#f2c94c" letter-spacing="3">PRODUCT DESIGNER &amp; DEVELOPER</text>
    <g transform="translate(136,132)"><rect width="192" height="32" rx="6" fill="url(#gg)"/><text x="16" y="23" font-size="18" font-weight="900" fill="#1a1305" font-family="'Sora',sans-serif">107</text><text x="64" y="22" font-size="13" font-weight="800" fill="#1a1305">LEGEND · CDM</text></g>
    <text x="348" y="155" font-size="12" font-weight="800" fill="#1fc7dd" letter-spacing="2">FC BARCELONA</text>
    <text x="850" y="64" text-anchor="end" font-size="15" letter-spacing="2" fill="#f2c94c">★★★★★</text>
    <text x="850" y="84" text-anchor="end" font-size="11" font-weight="800" fill="#9fb2d6" letter-spacing="3">LEGEND</text>
    <rect class="sh" x="-150" y="-20" width="130" height="225" transform="skewX(-16)" fill="url(#sh)"/>
  </g><rect x="2.5" y="2.5" width="875" height="180" rx="16" fill="none" stroke="url(#gg)" stroke-width="3"/><rect x="7" y="7" width="866" height="171" rx="12" fill="none" stroke="#1fc7dd" stroke-width="1" opacity="0.5"/></svg>