<svg xmlns="http://www.w3.org/2000/svg" viewBox="0 0 780 150" width="780" height="150" role="img" aria-label="Honours cabinet">
  <defs>
    <linearGradient id="tg" x1="0" y1="0" x2="0" y2="1"><stop offset="0" stop-color="#fff0b0"/><stop offset="0.5" stop-color="#f3cf5e"/><stop offset="1" stop-color="#caa12c"/></linearGradient>
    <linearGradient id="gl" x1="0" y1="0" x2="1" y2="1"><stop offset="0" stop-color="#fff" stop-opacity="0"/><stop offset="0.5" stop-color="#fff" stop-opacity="0.4"/><stop offset="1" stop-color="#fff" stop-opacity="0"/></linearGradient>
    <clipPath id="hp"><rect x="0" y="0" width="780" height="150" rx="14"/></clipPath>
    <style>.glint{animation:glint 5s ease-in-out infinite}@keyframes glint{0%,55%{transform:translateX(-300px)}80%,100%{transform:translateX(820px)}} text{font-family:'Sora','Segoe UI',sans-serif}</style>
  </defs>
  <g clip-path="url(#hp)">
    <rect width="780" height="150" fill="#11151c"/>
    <rect width="780" height="4" fill="#EDBB00"/>
    <text x="390" y="32" text-anchor="middle" font-size="15" font-weight="900" fill="#EDBB00" letter-spacing="5">HONOURS</text>
    <line x1="40" y1="128" x2="740" y2="128" stroke="#2a3340" stroke-width="2"/>
    
    <g transform="translate(0,86)">
    <path d="M105 -30 H135 V-20 Q135 -2 120 5 Q105 -2 105 -20 Z" fill="url(#tg)" stroke="#9a7a16" stroke-width="1"/>
    <path d="M105 -27 Q94 -27 94 -16 Q94 -7 105 -9" fill="none" stroke="#caa12c" stroke-width="2.4"/>
    <path d="M135 -27 Q146 -27 146 -16 Q146 -7 135 -9" fill="none" stroke="#caa12c" stroke-width="2.4"/>
    <rect x="117" y="4" width="6" height="9" fill="#caa12c"/>
    <rect x="109" y="13" width="22" height="5" rx="1.5" fill="#9a7a16"/></g>
    <text x="120" y="118" text-anchor="middle" font-size="10" font-weight="700" fill="#c9b27a" letter-spacing="0.5">DESIGN × DEV</text>
    <g transform="translate(0,86)">
    <path d="M293 -32 L298 -14 H302 L307 -32 Z" fill="#A50044"/>
    <circle cx="300" cy="-2" r="15" fill="url(#tg)" stroke="#9a7a16" stroke-width="1.2"/>
    <circle cx="300" cy="-2" r="9" fill="none" stroke="#9a7a16" stroke-width="1"/>
    <text x="300" y="2.5" text-anchor="middle" font-size="11" font-weight="900" fill="#7a5d10">★</text></g>
    <text x="300" y="118" text-anchor="middle" font-size="10" font-weight="700" fill="#c9b27a" letter-spacing="0.5">UX CRAFT</text>
    <g transform="translate(0,86)"><polygon points="480.0,-18.0 484.1,-7.7 495.2,-6.9 486.7,0.2 489.4,10.9 480.0,5.0 470.6,10.9 473.3,0.2 464.8,-6.9 475.9,-7.7" fill="url(#tg)" stroke="#9a7a16" stroke-width="1"/></g>
    <text x="480" y="118" text-anchor="middle" font-size="10" font-weight="700" fill="#c9b27a" letter-spacing="0.5">SHIP IT</text>
    <g transform="translate(0,86)">
    <path d="M645 -30 H675 V-20 Q675 -2 660 5 Q645 -2 645 -20 Z" fill="url(#tg)" stroke="#9a7a16" stroke-width="1"/>
    <path d="M645 -27 Q634 -27 634 -16 Q634 -7 645 -9" fill="none" stroke="#caa12c" stroke-width="2.4"/>
    <path d="M675 -27 Q686 -27 686 -16 Q686 -7 675 -9" fill="none" stroke="#caa12c" stroke-width="2.4"/>
    <rect x="657" y="4" width="6" height="9" fill="#caa12c"/>
    <rect x="649" y="13" width="22" height="5" rx="1.5" fill="#9a7a16"/></g>
    <text x="660" y="118" text-anchor="middle" font-size="10" font-weight="700" fill="#c9b27a" letter-spacing="0.5">MÉS QUE UN DEV</text>
    <rect class="glint" x="-150" y="0" width="110" height="150" transform="skewX(-18)" fill="url(#gl)"/>
  </g>
  <rect x="1.5" y="1.5" width="777" height="147" rx="14" fill="none" stroke="#A50044" stroke-width="2.5"/>
</svg>
