<svg xmlns="http://www.w3.org/2000/svg" viewBox="0 0 840 160" width="840" height="160" role="img" aria-label="Honours">
  <defs><radialGradient id="vig" cx="50%" cy="36%" r="75%"><stop offset="0" stop-color="#000" stop-opacity="0"/><stop offset="1" stop-color="#000" stop-opacity="0.45"/></radialGradient><linearGradient id="gg" x1="0" y1="0" x2="0" y2="1"><stop offset="0" stop-color="#ffe9a8"/><stop offset="0.5" stop-color="#f2c94c"/><stop offset="1" stop-color="#b8911f"/></linearGradient><linearGradient id="sh" x1="0" y1="0" x2="1" y2="1"><stop offset="0" stop-color="#fff" stop-opacity="0"/><stop offset="0.5" stop-color="#fff" stop-opacity="0.30"/><stop offset="1" stop-color="#fff" stop-opacity="0"/></linearGradient><clipPath id="hh"><rect width="840" height="160" rx="16"/></clipPath><style>.sh{animation:s 5s ease-in-out infinite}@keyframes s{0%,55%{transform:translateX(-300px)}82%,100%{transform:translateX(900px)}}text{font-family:'Sora','Segoe UI',sans-serif}</style></defs>
  <g clip-path="url(#hh)">
    <rect width="840" height="160" fill="#0a0e1c"/>
    <polygon points="0,0 520.8,0 0,160" fill="#0e1a40"/>
    <polygon points="840,0 840,160 403.2,160" fill="#2c0a20"/>
    <polygon points="0,0 252,0 0,105.6" fill="#15307a" opacity="0.85"/>
    <polygon points="840,160 840,67.2 621.6,160" fill="#580a30" opacity="0.85"/>
    <polygon points="386.4,0 420,0 126,160 92.4,160" fill="#1fc7dd" opacity="0.15"/>
    <polygon points="478.8,0 504,0 210,160 184.8,160" fill="#f2c94c" opacity="0.14"/>
    <rect width="840" height="160" fill="url(#vig)"/><rect width="840" height="4" fill="url(#gg)"/>
  <text x="420" y="34" text-anchor="middle" font-size="15" font-weight="900" fill="#f2c94c" letter-spacing="5">HONOURS</text>
  <line x1="40" y1="138" x2="800" y2="138" stroke="#243152" stroke-width="2"/><g transform="translate(0,92)"><path d="M115 -30 H145 V-20 Q145 -2 130 5 Q115 -2 115 -20 Z" fill="url(#gg)" stroke="#9a7a16"/><path d="M115 -27 Q104 -27 104 -16 Q104 -7 115 -9" fill="none" stroke="#caa12c" stroke-width="2.4"/><path d="M145 -27 Q156 -27 156 -16 Q156 -7 145 -9" fill="none" stroke="#caa12c" stroke-width="2.4"/><rect x="127" y="4" width="6" height="9" fill="#caa12c"/><rect x="119" y="13" width="22" height="5" rx="1.5" fill="#9a7a16"/></g><text x="130" y="126" text-anchor="middle" font-size="10" font-weight="700" fill="#c9b27a">DESIGN × DEV</text><g transform="translate(0,92)"><path d="M323 -32 L328 -14 H332 L337 -32 Z" fill="#A50044"/><circle cx="330" cy="-2" r="15" fill="url(#gg)" stroke="#9a7a16"/><circle cx="330" cy="-2" r="9" fill="none" stroke="#9a7a16"/><text x="330" y="2.5" text-anchor="middle" font-size="11" font-weight="900" fill="#7a5d10">★</text></g><text x="330" y="126" text-anchor="middle" font-size="10" font-weight="700" fill="#c9b27a">UX CRAFT</text><g transform="translate(0,92)"><polygon points="530,-18 534.11,-7.66 545.22,-6.94 536.66,0.16 539.4,10.94 530,5 520.6,10.94 523.34,0.16 514.78,-6.94 525.89,-7.66" fill="url(#gg)" stroke="#9a7a16"/></g><text x="530" y="126" text-anchor="middle" font-size="10" font-weight="700" fill="#c9b27a">SHIP IT</text><g transform="translate(0,92)"><path d="M705 -30 H735 V-20 Q735 -2 720 5 Q705 -2 705 -20 Z" fill="url(#gg)" stroke="#9a7a16"/><path d="M705 -27 Q694 -27 694 -16 Q694 -7 705 -9" fill="none" stroke="#caa12c" stroke-width="2.4"/><path d="M735 -27 Q746 -27 746 -16 Q746 -7 735 -9" fill="none" stroke="#caa12c" stroke-width="2.4"/><rect x="717" y="4" width="6" height="9" fill="#caa12c"/><rect x="709" y="13" width="22" height="5" rx="1.5" fill="#9a7a16"/></g><text x="720" y="126" text-anchor="middle" font-size="10" font-weight="700" fill="#c9b27a">MÉS QUE UN DEV</text>
  <rect class="sh" x="-150" y="0" width="110" height="160" transform="skewX(-18)" fill="url(#sh)"/></g><rect x="2.5" y="2.5" width="835" height="155" rx="16" fill="none" stroke="url(#gg)" stroke-width="3"/><rect x="7" y="7" width="826" height="146" rx="12" fill="none" stroke="#1fc7dd" stroke-width="1" opacity="0.5"/></svg>