<svg xmlns="http://www.w3.org/2000/svg" viewBox="0 0 820 240" width="820" height="240" role="img" aria-label="Aerial view: Messi dribbles a tiny ball past the commit grid and scores">
  <defs>
    <clipPath id="round"><rect x="0" y="0" width="820" height="240" rx="16"/></clipPath>
    <radialGradient id="spot" cx="62%" cy="40%" r="75%">
      <stop offset="0%" stop-color="#ffffff" stop-opacity="0.10"/>
      <stop offset="100%" stop-color="#000000" stop-opacity="0"/>
    </radialGradient>
    <style>
      .cell { transform-box: fill-box; }
      .l0 { animation: pulse0 8s linear infinite; }
      .l1 { animation: pulse1 8s linear infinite; }
      .l2 { animation: pulse2 8s linear infinite; }
      .l3 { animation: pulse3 8s linear infinite; }
      .l4 { animation: pulse4 8s linear infinite; }
      @keyframes pulse0 { 0%,3% {fill:#13233f} 5% {fill:#FFE45C} 9% {fill:#13233f} 100% {fill:#13233f} }
      @keyframes pulse1 { 0%,3% {fill:#0d4c9e} 5% {fill:#FFE45C} 9% {fill:#0d4c9e} 100% {fill:#0d4c9e} }
      @keyframes pulse2 { 0%,3% {fill:#5e0a34} 5% {fill:#FFE45C} 9% {fill:#5e0a34} 100% {fill:#5e0a34} }
      @keyframes pulse3 { 0%,3% {fill:#A50044} 5% {fill:#FFE45C} 9% {fill:#A50044} 100% {fill:#A50044} }
      @keyframes pulse4 { 0%,3% {fill:#d4286e} 5% {fill:#FFE45C} 9% {fill:#d4286e} 100% {fill:#d4286e} }
      .run  { animation: run 8s ease-in-out infinite; }
      .ball { animation: ball 8s ease-in-out infinite; }
      .spin { animation: spin 0.7s linear infinite; transform-box: fill-box; transform-origin: center; }
      .gol, .netflash { opacity: 0; animation: gol 8s ease-in-out infinite; }
      text { font-family: 'Sora','Poppins','Segoe UI',Verdana,sans-serif; }
      @keyframes run {
  0% { transform:translate(64.00px,117.50px); opacity:0; }
  3% { transform:translate(64.00px,117.50px); opacity:1; }
  7% { transform:translate(91.12px,163.50px);  }
  11% { transform:translate(118.23px,117.50px);  }
  15% { transform:translate(145.35px,71.50px);  }
  19% { transform:translate(172.46px,117.50px);  }
  23% { transform:translate(199.58px,163.50px);  }
  27% { transform:translate(226.69px,117.50px);  }
  31% { transform:translate(253.81px,71.50px);  }
  35% { transform:translate(280.92px,117.50px);  }
  39% { transform:translate(308.04px,163.50px);  }
  43% { transform:translate(335.15px,117.50px);  }
  47% { transform:translate(362.27px,71.50px);  }
  51% { transform:translate(389.38px,117.50px);  }
  55% { transform:translate(416.50px,163.50px);  }
  59% { transform:translate(503.73px,150.12px);  }
  63% { transform:translate(590.96px,136.73px);  }
  68% { transform:translate(700.00px,120.00px);  }
  92% { transform:translate(700.00px,120.00px); opacity:1; }
  97% { transform:translate(700.00px,120.00px); opacity:0; }
  100% { transform:translate(64.00px,117.50px); opacity:0; }
      }
      @keyframes ball {
  0% { transform:translate(77.00px,115.50px); opacity:0; }
  3% { transform:translate(77.00px,115.50px); opacity:1; }
  7% { transform:translate(104.12px,161.50px);  }
  11% { transform:translate(131.23px,115.50px);  }
  15% { transform:translate(158.35px,69.50px);  }
  19% { transform:translate(185.46px,115.50px);  }
  23% { transform:translate(212.58px,161.50px);  }
  27% { transform:translate(239.69px,115.50px);  }
  31% { transform:translate(266.81px,69.50px);  }
  35% { transform:translate(293.92px,115.50px);  }
  39% { transform:translate(321.04px,161.50px);  }
  43% { transform:translate(348.15px,115.50px);  }
  47% { transform:translate(375.27px,69.50px);  }
  51% { transform:translate(402.38px,115.50px);  }
  55% { transform:translate(429.50px,161.50px);  }
  59% { transform:translate(516.73px,148.12px);  }
  63% { transform:translate(603.96px,134.73px);  }
  67% { transform:translate(691.19px,121.35px);  }
  68% { transform:translate(713.00px,118.00px);  }
  71% { transform:translate(735px,94.00px); }
  75% { transform:translate(782px,106.00px); }
  78% { transform:translate(800px,122.00px); }
  92% { transform:translate(800px,122.00px); opacity:1; }
  97% { opacity:0; }
  100% { transform:translate(77.00px,115.50px); opacity:0; }
      }
      @keyframes spin { to { transform: rotate(360deg); } }
      @keyframes gol {
        0%,69% { opacity:0; transform:translateY(6px); }
        74% { opacity:1; transform:translateY(0); }
        90% { opacity:1; }
        97% { opacity:0; }
        100% { opacity:0; }
      }
    </style>
  </defs>

  <g clip-path="url(#round)">
    <rect x="0" y="0" width="820" height="240" fill="#1f7a37"/>
    <rect x="0" y="34"  width="820" height="34" fill="#249040"/>
    <rect x="0" y="102" width="820" height="34" fill="#249040"/>
    <rect x="0" y="170" width="820" height="34" fill="#249040"/>
    <rect x="0" y="0" width="820" height="240" fill="url(#spot)"/>

    <g stroke="#ffffff" stroke-opacity="0.45" fill="none" stroke-width="2">
      <line x1="60" y1="8" x2="60" y2="232"/>
      <circle cx="60" cy="120" r="40"/>
      <rect x="700" y="60" width="118" height="120"/>
      <rect x="772" y="92" width="46" height="56"/>
    </g>
    <circle cx="60" cy="120" r="3" fill="#ffffff"/>

    <g stroke="#ffffff" stroke-opacity="0.4" stroke-width="1">
      <line x1="794" y1="94" x2="794" y2="146"/>
      <line x1="800" y1="94" x2="800" y2="146"/>
      <line x1="806" y1="94" x2="806" y2="146"/>
      <line x1="812" y1="94" x2="812" y2="146"/>
      <line x1="792" y1="96" x2="811" y2="96"/>
      <line x1="792" y1="103" x2="811" y2="103"/>
      <line x1="792" y1="110" x2="811" y2="110"/>
      <line x1="792" y1="117" x2="811" y2="117"/>
      <line x1="792" y1="124" x2="811" y2="124"/>
      <line x1="792" y1="131" x2="811" y2="131"/>
      <line x1="792" y1="138" x2="811" y2="138"/>
      <line x1="792" y1="145" x2="811" y2="145"/>
    </g>
    <rect class="netflash" x="792" y="94" width="44" height="52" fill="#EDBB00"/>
    <rect x="788" y="92" width="4" height="56" fill="#ffffff"/>
    <circle cx="790" cy="92" r="3.2" fill="#ffffff"/>
    <circle cx="790" cy="148" r="3.2" fill="#ffffff"/>

    <rect class="cell l0" x="100" y="57" width="13" height="13" rx="2.5" fill="#13233f" style="animation-delay:0.34s"/>
    <rect class="cell l0" x="100" y="75" width="13" height="13" rx="2.5" fill="#13233f" style="animation-delay:0.34s"/>
    <rect class="cell l4" x="100" y="93" width="13" height="13" rx="2.5" fill="#d4286e" style="animation-delay:0.34s"/>
    <rect class="cell l2" x="100" y="111" width="13" height="13" rx="2.5" fill="#5e0a34" style="animation-delay:0.34s"/>
    <rect class="cell l1" x="100" y="129" width="13" height="13" rx="2.5" fill="#0d4c9e" style="animation-delay:0.34s"/>
    <rect class="cell l1" x="100" y="147" width="13" height="13" rx="2.5" fill="#0d4c9e" style="animation-delay:0.34s"/>
    <rect class="cell l1" x="100" y="165" width="13" height="13" rx="2.5" fill="#0d4c9e" style="animation-delay:0.34s"/>
    <rect class="cell l0" x="118" y="57" width="13" height="13" rx="2.5" fill="#13233f" style="animation-delay:0.55s"/>
    <rect class="cell l1" x="118" y="75" width="13" height="13" rx="2.5" fill="#0d4c9e" style="animation-delay:0.55s"/>
    <rect class="cell l2" x="118" y="93" width="13" height="13" rx="2.5" fill="#5e0a34" style="animation-delay:0.55s"/>
    <rect class="cell l0" x="118" y="111" width="13" height="13" rx="2.5" fill="#13233f" style="animation-delay:0.55s"/>
    <rect class="cell l0" x="118" y="129" width="13" height="13" rx="2.5" fill="#13233f" style="animation-delay:0.55s"/>
    <rect class="cell l2" x="118" y="147" width="13" height="13" rx="2.5" fill="#5e0a34" style="animation-delay:0.55s"/>
    <rect class="cell l1" x="118" y="165" width="13" height="13" rx="2.5" fill="#0d4c9e" style="animation-delay:0.55s"/>
    <rect class="cell l0" x="136" y="57" width="13" height="13" rx="2.5" fill="#13233f" style="animation-delay:0.77s"/>
    <rect class="cell l1" x="136" y="75" width="13" height="13" rx="2.5" fill="#0d4c9e" style="animation-delay:0.77s"/>
    <rect class="cell l0" x="136" y="93" width="13" height="13" rx="2.5" fill="#13233f" style="animation-delay:0.77s"/>
    <rect class="cell l1" x="136" y="111" width="13" height="13" rx="2.5" fill="#0d4c9e" style="animation-delay:0.77s"/>
    <rect class="cell l0" x="136" y="129" width="13" height="13" rx="2.5" fill="#13233f" style="animation-delay:0.77s"/>
    <rect class="cell l4" x="136" y="147" width="13" height="13" rx="2.5" fill="#d4286e" style="animation-delay:0.77s"/>
    <rect class="cell l0" x="136" y="165" width="13" height="13" rx="2.5" fill="#13233f" style="animation-delay:0.77s"/>
    <rect class="cell l3" x="154" y="57" width="13" height="13" rx="2.5" fill="#A50044" style="animation-delay:0.98s"/>
    <rect class="cell l0" x="154" y="75" width="13" height="13" rx="2.5" fill="#13233f" style="animation-delay:0.98s"/>
    <rect class="cell l0" x="154" y="93" width="13" height="13" rx="2.5" fill="#13233f" style="animation-delay:0.98s"/>
    <rect class="cell l0" x="154" y="111" width="13" height="13" rx="2.5" fill="#13233f" style="animation-delay:0.98s"/>
    <rect class="cell l0" x="154" y="129" width="13" height="13" rx="2.5" fill="#13233f" style="animation-delay:0.98s"/>
    <rect class="cell l1" x="154" y="147" width="13" height="13" rx="2.5" fill="#0d4c9e" style="animation-delay:0.98s"/>
    <rect class="cell l2" x="154" y="165" width="13" height="13" rx="2.5" fill="#5e0a34" style="animation-delay:0.98s"/>
    <rect class="cell l0" x="172" y="57" width="13" height="13" rx="2.5" fill="#13233f" style="animation-delay:1.19s"/>
    <rect class="cell l3" x="172" y="75" width="13" height="13" rx="2.5" fill="#A50044" style="animation-delay:1.19s"/>
    <rect class="cell l1" x="172" y="93" width="13" height="13" rx="2.5" fill="#0d4c9e" style="animation-delay:1.19s"/>
    <rect class="cell l2" x="172" y="111" width="13" height="13" rx="2.5" fill="#5e0a34" style="animation-delay:1.19s"/>
    <rect class="cell l2" x="172" y="129" width="13" height="13" rx="2.5" fill="#5e0a34" style="animation-delay:1.19s"/>
    <rect class="cell l4" x="172" y="147" width="13" height="13" rx="2.5" fill="#d4286e" style="animation-delay:1.19s"/>
    <rect class="cell l2" x="172" y="165" width="13" height="13" rx="2.5" fill="#5e0a34" style="animation-delay:1.19s"/>
    <rect class="cell l4" x="190" y="57" width="13" height="13" rx="2.5" fill="#d4286e" style="animation-delay:1.40s"/>
    <rect class="cell l3" x="190" y="75" width="13" height="13" rx="2.5" fill="#A50044" style="animation-delay:1.40s"/>
    <rect class="cell l0" x="190" y="93" width="13" height="13" rx="2.5" fill="#13233f" style="animation-delay:1.40s"/>
    <rect class="cell l0" x="190" y="111" width="13" height="13" rx="2.5" fill="#13233f" style="animation-delay:1.40s"/>
    <rect class="cell l1" x="190" y="129" width="13" height="13" rx="2.5" fill="#0d4c9e" style="animation-delay:1.40s"/>
    <rect class="cell l1" x="190" y="147" width="13" height="13" rx="2.5" fill="#0d4c9e" style="animation-delay:1.40s"/>
    <rect class="cell l0" x="190" y="165" width="13" height="13" rx="2.5" fill="#13233f" style="animation-delay:1.40s"/>
    <rect class="cell l0" x="208" y="57" width="13" height="13" rx="2.5" fill="#13233f" style="animation-delay:1.62s"/>
    <rect class="cell l2" x="208" y="75" width="13" height="13" rx="2.5" fill="#5e0a34" style="animation-delay:1.62s"/>
    <rect class="cell l1" x="208" y="93" width="13" height="13" rx="2.5" fill="#0d4c9e" style="animation-delay:1.62s"/>
    <rect class="cell l1" x="208" y="111" width="13" height="13" rx="2.5" fill="#0d4c9e" style="animation-delay:1.62s"/>
    <rect class="cell l1" x="208" y="129" width="13" height="13" rx="2.5" fill="#0d4c9e" style="animation-delay:1.62s"/>
    <rect class="cell l4" x="208" y="147" width="13" height="13" rx="2.5" fill="#d4286e" style="animation-delay:1.62s"/>
    <rect class="cell l2" x="208" y="165" width="13" height="13" rx="2.5" fill="#5e0a34" style="animation-delay:1.62s"/>
    <rect class="cell l2" x="226" y="57" width="13" height="13" rx="2.5" fill="#5e0a34" style="animation-delay:1.83s"/>
    <rect class="cell l0" x="226" y="75" width="13" height="13" rx="2.5" fill="#13233f" style="animation-delay:1.83s"/>
    <rect class="cell l1" x="226" y="93" width="13" height="13" rx="2.5" fill="#0d4c9e" style="animation-delay:1.83s"/>
    <rect class="cell l0" x="226" y="111" width="13" height="13" rx="2.5" fill="#13233f" style="animation-delay:1.83s"/>
    <rect class="cell l0" x="226" y="129" width="13" height="13" rx="2.5" fill="#13233f" style="animation-delay:1.83s"/>
    <rect class="cell l3" x="226" y="147" width="13" height="13" rx="2.5" fill="#A50044" style="animation-delay:1.83s"/>
    <rect class="cell l0" x="226" y="165" width="13" height="13" rx="2.5" fill="#13233f" style="animation-delay:1.83s"/>
    <rect class="cell l0" x="244" y="57" width="13" height="13" rx="2.5" fill="#13233f" style="animation-delay:2.04s"/>
    <rect class="cell l2" x="244" y="75" width="13" height="13" rx="2.5" fill="#5e0a34" style="animation-delay:2.04s"/>
    <rect class="cell l0" x="244" y="93" width="13" height="13" rx="2.5" fill="#13233f" style="animation-delay:2.04s"/>
    <rect class="cell l0" x="244" y="111" width="13" height="13" rx="2.5" fill="#13233f" style="animation-delay:2.04s"/>
    <rect class="cell l2" x="244" y="129" width="13" height="13" rx="2.5" fill="#5e0a34" style="animation-delay:2.04s"/>
    <rect class="cell l4" x="244" y="147" width="13" height="13" rx="2.5" fill="#d4286e" style="animation-delay:2.04s"/>
    <rect class="cell l1" x="244" y="165" width="13" height="13" rx="2.5" fill="#0d4c9e" style="animation-delay:2.04s"/>
    <rect class="cell l3" x="262" y="57" width="13" height="13" rx="2.5" fill="#A50044" style="animation-delay:2.25s"/>
    <rect class="cell l2" x="262" y="75" width="13" height="13" rx="2.5" fill="#5e0a34" style="animation-delay:2.25s"/>
    <rect class="cell l3" x="262" y="93" width="13" height="13" rx="2.5" fill="#A50044" style="animation-delay:2.25s"/>
    <rect class="cell l0" x="262" y="111" width="13" height="13" rx="2.5" fill="#13233f" style="animation-delay:2.25s"/>
    <rect class="cell l1" x="262" y="129" width="13" height="13" rx="2.5" fill="#0d4c9e" style="animation-delay:2.25s"/>
    <rect class="cell l2" x="262" y="147" width="13" height="13" rx="2.5" fill="#5e0a34" style="animation-delay:2.25s"/>
    <rect class="cell l3" x="262" y="165" width="13" height="13" rx="2.5" fill="#A50044" style="animation-delay:2.25s"/>
    <rect class="cell l4" x="280" y="57" width="13" height="13" rx="2.5" fill="#d4286e" style="animation-delay:2.47s"/>
    <rect class="cell l3" x="280" y="75" width="13" height="13" rx="2.5" fill="#A50044" style="animation-delay:2.47s"/>
    <rect class="cell l1" x="280" y="93" width="13" height="13" rx="2.5" fill="#0d4c9e" style="animation-delay:2.47s"/>
    <rect class="cell l4" x="280" y="111" width="13" height="13" rx="2.5" fill="#d4286e" style="animation-delay:2.47s"/>
    <rect class="cell l4" x="280" y="129" width="13" height="13" rx="2.5" fill="#d4286e" style="animation-delay:2.47s"/>
    <rect class="cell l1" x="280" y="147" width="13" height="13" rx="2.5" fill="#0d4c9e" style="animation-delay:2.47s"/>
    <rect class="cell l3" x="280" y="165" width="13" height="13" rx="2.5" fill="#A50044" style="animation-delay:2.47s"/>
    <rect class="cell l0" x="298" y="57" width="13" height="13" rx="2.5" fill="#13233f" style="animation-delay:2.68s"/>
    <rect class="cell l1" x="298" y="75" width="13" height="13" rx="2.5" fill="#0d4c9e" style="animation-delay:2.68s"/>
    <rect class="cell l0" x="298" y="93" width="13" height="13" rx="2.5" fill="#13233f" style="animation-delay:2.68s"/>
    <rect class="cell l2" x="298" y="111" width="13" height="13" rx="2.5" fill="#5e0a34" style="animation-delay:2.68s"/>
    <rect class="cell l1" x="298" y="129" width="13" height="13" rx="2.5" fill="#0d4c9e" style="animation-delay:2.68s"/>
    <rect class="cell l2" x="298" y="147" width="13" height="13" rx="2.5" fill="#5e0a34" style="animation-delay:2.68s"/>
    <rect class="cell l4" x="298" y="165" width="13" height="13" rx="2.5" fill="#d4286e" style="animation-delay:2.68s"/>
    <rect class="cell l1" x="316" y="57" width="13" height="13" rx="2.5" fill="#0d4c9e" style="animation-delay:2.89s"/>
    <rect class="cell l3" x="316" y="75" width="13" height="13" rx="2.5" fill="#A50044" style="animation-delay:2.89s"/>
    <rect class="cell l1" x="316" y="93" width="13" height="13" rx="2.5" fill="#0d4c9e" style="animation-delay:2.89s"/>
    <rect class="cell l2" x="316" y="111" width="13" height="13" rx="2.5" fill="#5e0a34" style="animation-delay:2.89s"/>
    <rect class="cell l2" x="316" y="129" width="13" height="13" rx="2.5" fill="#5e0a34" style="animation-delay:2.89s"/>
    <rect class="cell l1" x="316" y="147" width="13" height="13" rx="2.5" fill="#0d4c9e" style="animation-delay:2.89s"/>
    <rect class="cell l0" x="316" y="165" width="13" height="13" rx="2.5" fill="#13233f" style="animation-delay:2.89s"/>
    <rect class="cell l0" x="334" y="57" width="13" height="13" rx="2.5" fill="#13233f" style="animation-delay:3.10s"/>
    <rect class="cell l0" x="334" y="75" width="13" height="13" rx="2.5" fill="#13233f" style="animation-delay:3.10s"/>
    <rect class="cell l0" x="334" y="93" width="13" height="13" rx="2.5" fill="#13233f" style="animation-delay:3.10s"/>
    <rect class="cell l4" x="334" y="111" width="13" height="13" rx="2.5" fill="#d4286e" style="animation-delay:3.10s"/>
    <rect class="cell l3" x="334" y="129" width="13" height="13" rx="2.5" fill="#A50044" style="animation-delay:3.10s"/>
    <rect class="cell l2" x="334" y="147" width="13" height="13" rx="2.5" fill="#5e0a34" style="animation-delay:3.10s"/>
    <rect class="cell l0" x="334" y="165" width="13" height="13" rx="2.5" fill="#13233f" style="animation-delay:3.10s"/>
    <rect class="cell l2" x="352" y="57" width="13" height="13" rx="2.5" fill="#5e0a34" style="animation-delay:3.32s"/>
    <rect class="cell l1" x="352" y="75" width="13" height="13" rx="2.5" fill="#0d4c9e" style="animation-delay:3.32s"/>
    <rect class="cell l2" x="352" y="93" width="13" height="13" rx="2.5" fill="#5e0a34" style="animation-delay:3.32s"/>
    <rect class="cell l4" x="352" y="111" width="13" height="13" rx="2.5" fill="#d4286e" style="animation-delay:3.32s"/>
    <rect class="cell l0" x="352" y="129" width="13" height="13" rx="2.5" fill="#13233f" style="animation-delay:3.32s"/>
    <rect class="cell l4" x="352" y="147" width="13" height="13" rx="2.5" fill="#d4286e" style="animation-delay:3.32s"/>
    <rect class="cell l2" x="352" y="165" width="13" height="13" rx="2.5" fill="#5e0a34" style="animation-delay:3.32s"/>
    <rect class="cell l3" x="370" y="57" width="13" height="13" rx="2.5" fill="#A50044" style="animation-delay:3.53s"/>
    <rect class="cell l2" x="370" y="75" width="13" height="13" rx="2.5" fill="#5e0a34" style="animation-delay:3.53s"/>
    <rect class="cell l3" x="370" y="93" width="13" height="13" rx="2.5" fill="#A50044" style="animation-delay:3.53s"/>
    <rect class="cell l0" x="370" y="111" width="13" height="13" rx="2.5" fill="#13233f" style="animation-delay:3.53s"/>
    <rect class="cell l4" x="370" y="129" width="13" height="13" rx="2.5" fill="#d4286e" style="animation-delay:3.53s"/>
    <rect class="cell l1" x="370" y="147" width="13" height="13" rx="2.5" fill="#0d4c9e" style="animation-delay:3.53s"/>
    <rect class="cell l1" x="370" y="165" width="13" height="13" rx="2.5" fill="#0d4c9e" style="animation-delay:3.53s"/>
    <rect class="cell l0" x="388" y="57" width="13" height="13" rx="2.5" fill="#13233f" style="animation-delay:3.74s"/>
    <rect class="cell l1" x="388" y="75" width="13" height="13" rx="2.5" fill="#0d4c9e" style="animation-delay:3.74s"/>
    <rect class="cell l0" x="388" y="93" width="13" height="13" rx="2.5" fill="#13233f" style="animation-delay:3.74s"/>
    <rect class="cell l3" x="388" y="111" width="13" height="13" rx="2.5" fill="#A50044" style="animation-delay:3.74s"/>
    <rect class="cell l3" x="388" y="129" width="13" height="13" rx="2.5" fill="#A50044" style="animation-delay:3.74s"/>
    <rect class="cell l2" x="388" y="147" width="13" height="13" rx="2.5" fill="#5e0a34" style="animation-delay:3.74s"/>
    <rect class="cell l2" x="388" y="165" width="13" height="13" rx="2.5" fill="#5e0a34" style="animation-delay:3.74s"/>
    <rect class="cell l4" x="406" y="57" width="13" height="13" rx="2.5" fill="#d4286e" style="animation-delay:3.95s"/>
    <rect class="cell l2" x="406" y="75" width="13" height="13" rx="2.5" fill="#5e0a34" style="animation-delay:3.95s"/>
    <rect class="cell l2" x="406" y="93" width="13" height="13" rx="2.5" fill="#5e0a34" style="animation-delay:3.95s"/>
    <rect class="cell l4" x="406" y="111" width="13" height="13" rx="2.5" fill="#d4286e" style="animation-delay:3.95s"/>
    <rect class="cell l1" x="406" y="129" width="13" height="13" rx="2.5" fill="#0d4c9e" style="animation-delay:3.95s"/>
    <rect class="cell l0" x="406" y="147" width="13" height="13" rx="2.5" fill="#13233f" style="animation-delay:3.95s"/>
    <rect class="cell l1" x="406" y="165" width="13" height="13" rx="2.5" fill="#0d4c9e" style="animation-delay:3.95s"/>

    <g class="run">
      <ellipse cx="0" cy="0" rx="7.5" ry="6.5" fill="#004D98"/>
      <rect x="-2.2" y="-6.5" width="2.4" height="13" fill="#A50044"/>
      <rect x="3.2"  y="-5.6" width="2.2" height="11" fill="#A50044"/>
      <rect x="-6.6" y="-5.6" width="2.2" height="11" fill="#A50044"/>
      <ellipse cx="0" cy="0" rx="7.5" ry="6.5" fill="none" stroke="#06203f" stroke-width="0.8"/>
      <circle cx="5.5" cy="0" r="3.1" fill="#f1c27d" stroke="#06203f" stroke-width="0.6"/>
    </g>

    <g class="ball">
      <g class="spin">
        <circle r="3.1" fill="#ffffff" stroke="#111" stroke-width="0.5"/>
        <polygon points="0,-1.7 1.6,-0.5 1.0,1.4 -1.0,1.4 -1.6,-0.5" fill="#111"/>
      </g>
    </g>

    <g class="gol" text-anchor="middle">
      <text x="300" y="36" font-size="34" font-weight="900" fill="#EDBB00" stroke="#A50044" stroke-width="1.1" paint-order="stroke">GOOOOL!</text>
      <text x="300" y="58" font-size="13" font-weight="700" fill="#ffffff" letter-spacing="4">ANKARA MESSI</text>
    </g>
  </g>

  <rect x="1.5" y="1.5" width="817" height="237" rx="16" fill="none" stroke="#A50044" stroke-width="3"/>
</svg>
