<svg xmlns="http://www.w3.org/2000/svg" viewBox="0 0 880 276" width="880" height="276" role="img" aria-label="Player abilities">
  <defs><radialGradient id="vig" cx="50%" cy="36%" r="75%"><stop offset="0" stop-color="#000" stop-opacity="0"/><stop offset="1" stop-color="#000" stop-opacity="0.45"/></radialGradient><linearGradient id="gg" x1="0" y1="0" x2="0" y2="1"><stop offset="0" stop-color="#ffe9a8"/><stop offset="0.5" stop-color="#f2c94c"/><stop offset="1" stop-color="#b8911f"/></linearGradient><linearGradient id="sh" x1="0" y1="0" x2="1" y2="1"><stop offset="0" stop-color="#fff" stop-opacity="0"/><stop offset="0.5" stop-color="#fff" stop-opacity="0.30"/><stop offset="1" stop-color="#fff" stop-opacity="0"/></linearGradient><linearGradient id="acc" x1="0" y1="0" x2="1" y2="0"><stop offset="0" stop-color="#1fc7dd"/><stop offset="1" stop-color="#f2c94c"/></linearGradient><clipPath id="c1"><rect width="880" height="276" rx="16"/></clipPath><style>.sh{animation:s 6s ease-in-out infinite}@keyframes s{0%,55%{transform:translateX(-360px)}82%,100%{transform:translateX(940px)}}text{font-family:'Sora','Segoe UI',sans-serif}</style></defs>
  <g clip-path="url(#c1)">
    <rect width="880" height="276" fill="#0a0e1c"/>
    <polygon points="0,0 545.6,0 0,276" fill="#0e1a40"/>
    <polygon points="880,0 880,276 422.4,276" fill="#2c0a20"/>
    <polygon points="0,0 264,0 0,182.16" fill="#15307a" opacity="0.85"/>
    <polygon points="880,276 880,115.92 651.2,276" fill="#580a30" opacity="0.85"/>
    <polygon points="404.8,0 440,0 132,276 96.8,276" fill="#1fc7dd" opacity="0.15"/>
    <polygon points="501.6,0 528,0 220,276 193.6,276" fill="#f2c94c" opacity="0.14"/>
    <rect width="880" height="276" fill="url(#vig)"/>
    <text x="40" y="51" font-size="12" font-weight="700" fill="#9fb2d6" letter-spacing="0.3">UI / UX DESIGN</text><text x="410" y="51" text-anchor="end" font-size="14" font-weight="900" fill="#fff">99</text><rect x="40" y="56" width="370" height="6" rx="3" fill="#1d2740"/><rect x="40" y="56" width="366.3" height="6" rx="3" fill="url(#acc)"/><text x="40" y="93" font-size="12" font-weight="700" fill="#9fb2d6" letter-spacing="0.3">INTERACTION &amp; PROTOTYPE</text><text x="410" y="93" text-anchor="end" font-size="14" font-weight="900" fill="#fff">96</text><rect x="40" y="98" width="370" height="6" rx="3" fill="#1d2740"/><rect x="40" y="98" width="355.2" height="6" rx="3" fill="url(#acc)"/><text x="40" y="135" font-size="12" font-weight="700" fill="#9fb2d6" letter-spacing="0.3">FRONT-END · React / TS</text><text x="410" y="135" text-anchor="end" font-size="14" font-weight="900" fill="#fff">95</text><rect x="40" y="140" width="370" height="6" rx="3" fill="#1d2740"/><rect x="40" y="140" width="351.5" height="6" rx="3" fill="url(#acc)"/><text x="40" y="177" font-size="12" font-weight="700" fill="#9fb2d6" letter-spacing="0.3">DESIGN SYSTEMS</text><text x="410" y="177" text-anchor="end" font-size="14" font-weight="900" fill="#fff">94</text><rect x="40" y="182" width="370" height="6" rx="3" fill="#1d2740"/><rect x="40" y="182" width="347.8" height="6" rx="3" fill="url(#acc)"/><text x="470" y="51" font-size="12" font-weight="700" fill="#9fb2d6" letter-spacing="0.3">TYPESCRIPT</text><text x="840" y="51" text-anchor="end" font-size="14" font-weight="900" fill="#fff">93</text><rect x="470" y="56" width="370" height="6" rx="3" fill="#1d2740"/><rect x="470" y="56" width="344.1" height="6" rx="3" fill="url(#acc)"/><text x="470" y="93" font-size="12" font-weight="700" fill="#9fb2d6" letter-spacing="0.3">BACK-END · Node / PG</text><text x="840" y="93" text-anchor="end" font-size="14" font-weight="900" fill="#fff">90</text><rect x="470" y="98" width="370" height="6" rx="3" fill="#1d2740"/><rect x="470" y="98" width="333" height="6" rx="3" fill="url(#acc)"/><text x="470" y="135" font-size="12" font-weight="700" fill="#9fb2d6" letter-spacing="0.3">VISUAL CRAFT</text><text x="840" y="135" text-anchor="end" font-size="14" font-weight="900" fill="#fff">98</text><rect x="470" y="140" width="370" height="6" rx="3" fill="#1d2740"/><rect x="470" y="140" width="362.6" height="6" rx="3" fill="url(#acc)"/><text x="470" y="177" font-size="12" font-weight="700" fill="#9fb2d6" letter-spacing="0.3">SHIPPING</text><text x="840" y="177" text-anchor="end" font-size="14" font-weight="900" fill="#fff">92</text><rect x="470" y="182" width="370" height="6" rx="3" fill="#1d2740"/><rect x="470" y="182" width="340.4" height="6" rx="3" fill="url(#acc)"/><rect x="40" y="224" width="110.4" height="19" rx="9.5" fill="none" stroke="#f2c94c" stroke-width="1"/><text x="95.2" y="237" text-anchor="middle" font-size="9" font-weight="800" fill="#f2c94c">DESIGN MAESTRO</text><rect x="160.39999999999998" y="224" width="103.8" height="19" rx="9.5" fill="none" stroke="#f2c94c" stroke-width="1"/><text x="212.3" y="237" text-anchor="middle" font-size="9" font-weight="800" fill="#f2c94c">PIXEL PERFECT</text><rect x="274.2" y="224" width="84" height="19" rx="9.5" fill="none" stroke="#f2c94c" stroke-width="1"/><text x="316.2" y="237" text-anchor="middle" font-size="9" font-weight="800" fill="#f2c94c">FULL-STACK</text>
    <line x1="40" y1="252" x2="840" y2="252" stroke="#2a3450" stroke-width="1"/>
    <text x="40" y="266" font-size="9" font-weight="700" fill="#7d8aa0" letter-spacing="0.5">OPEN TO PRODUCT-DESIGN &amp; DESIGN-ENGINEER ROLES</text>
    <text x="840" y="266" text-anchor="end" font-size="9" font-weight="800" fill="#1fc7dd">qureshi.ux@gmail.com</text>
    <rect class="sh" x="-150" y="-20" width="120" height="316" transform="skewX(-16)" fill="url(#sh)"/>
  </g><rect x="2.5" y="2.5" width="875" height="271" rx="16" fill="none" stroke="url(#gg)" stroke-width="3"/><rect x="7" y="7" width="866" height="262" rx="12" fill="none" stroke="#1fc7dd" stroke-width="1" opacity="0.5"/></svg>