<svg xmlns="http://www.w3.org/2000/svg" viewBox="0 0 560 620" width="560" height="620" role="img" aria-label="Haseeb Qureshi — abilities">
  <defs><radialGradient id="vig" cx="50%" cy="36%" r="75%"><stop offset="0" stop-color="#000" stop-opacity="0"/><stop offset="1" stop-color="#000" stop-opacity="0.45"/></radialGradient><linearGradient id="gg" x1="0" y1="0" x2="0" y2="1"><stop offset="0" stop-color="#ffe9a8"/><stop offset="0.5" stop-color="#f2c94c"/><stop offset="1" stop-color="#b8911f"/></linearGradient><linearGradient id="sh" x1="0" y1="0" x2="1" y2="1"><stop offset="0" stop-color="#fff" stop-opacity="0"/><stop offset="0.5" stop-color="#fff" stop-opacity="0.30"/><stop offset="1" stop-color="#fff" stop-opacity="0"/></linearGradient><linearGradient id="acc" x1="0" y1="0" x2="1" y2="0"><stop offset="0" stop-color="#1fc7dd"/><stop offset="1" stop-color="#f2c94c"/></linearGradient>
  <clipPath id="c1"><rect width="560" height="620" rx="18"/></clipPath><style>.sh{animation:s 6s ease-in-out infinite}@keyframes s{0%,55%{transform:translateX(-300px)}82%,100%{transform:translateX(640px)}}text{font-family:'Sora','Segoe UI',sans-serif}</style></defs>
  <g clip-path="url(#c1)">
    <rect width="560" height="620" fill="#0a0e1c"/>
    <polygon points="0,0 347.2,0 0,620" fill="#0e1a40"/>
    <polygon points="560,0 560,620 268.8,620" fill="#2c0a20"/>
    <polygon points="0,0 168,0 0,409.2" fill="#15307a" opacity="0.85"/>
    <polygon points="560,620 560,260.4 414.4,620" fill="#580a30" opacity="0.85"/>
    <polygon points="257.6,0 280,0 84,620 61.6,620" fill="#1fc7dd" opacity="0.15"/>
    <polygon points="319.2,0 336,0 140,620 123.2,620" fill="#f2c94c" opacity="0.14"/>
    <rect width="560" height="620" fill="url(#vig)"/>
    <g transform="translate(60,56) scale(1.3)"><circle r="13" fill="#A50044"/><rect x="-7" y="-13" width="3.6" height="26" fill="#004D98"/><rect x="1" y="-13" width="3.6" height="26" fill="#004D98"/><path d="M-13 -2 h26" stroke="#f5c542" stroke-width="3"/><circle r="13" fill="none" stroke="#f5c542" stroke-width="1.3"/></g>
    <text x="94" y="50" font-size="30" font-weight="900" fill="#fff" letter-spacing="0.5" font-family="'Sora',sans-serif">HASEEB QURESHI</text>
    <text x="94" y="74" font-size="13" font-weight="700" fill="#f2c94c" letter-spacing="2">PRODUCT DESIGNER &amp; DEVELOPER</text>
    <g transform="translate(40,104)"><rect width="150" height="30" rx="6" fill="url(#gg)"/><text x="14" y="21" font-size="16" font-weight="900" fill="#1a1305" font-family="'Sora',sans-serif">107</text><text x="56" y="20" font-size="12" font-weight="800" fill="#1a1305">LEGEND · CDM</text></g>
    <text x="450" y="125" text-anchor="end" font-size="11" font-weight="800" fill="#1fc7dd" letter-spacing="2">★★★★★  EPIC</text>
    <line x1="40" y1="150" x2="520" y2="150" stroke="#2a3450" stroke-width="1"/>
    <text x="40" y="178" font-size="15" font-weight="900" fill="#fff" letter-spacing="2">PLAYER ABILITIES</text>
    <text x="520" y="178" text-anchor="end" font-size="11" font-weight="800" fill="#7d8aa0" letter-spacing="1">PERSONAL</text>
    <text x="40" y="245" font-size="12" font-weight="700" fill="#9fb2d6" letter-spacing="0.4">UI / UX DESIGN</text><text x="510" y="245" text-anchor="end" font-size="14" font-weight="900" fill="#fff">99</text><rect x="40" y="250" width="470" height="6" rx="3" fill="#1d2740"/><rect x="40" y="250" width="465.3" height="6" rx="3" fill="url(#acc)"/><text x="40" y="283" font-size="12" font-weight="700" fill="#9fb2d6" letter-spacing="0.4">INTERACTION & PROTOTYPE</text><text x="510" y="283" text-anchor="end" font-size="14" font-weight="900" fill="#fff">96</text><rect x="40" y="288" width="470" height="6" rx="3" fill="#1d2740"/><rect x="40" y="288" width="451.2" height="6" rx="3" fill="url(#acc)"/><text x="40" y="321" font-size="12" font-weight="700" fill="#9fb2d6" letter-spacing="0.4">FRONT-END · React / TS</text><text x="510" y="321" text-anchor="end" font-size="14" font-weight="900" fill="#fff">95</text><rect x="40" y="326" width="470" height="6" rx="3" fill="#1d2740"/><rect x="40" y="326" width="446.5" height="6" rx="3" fill="url(#acc)"/><text x="40" y="359" font-size="12" font-weight="700" fill="#9fb2d6" letter-spacing="0.4">DESIGN SYSTEMS</text><text x="510" y="359" text-anchor="end" font-size="14" font-weight="900" fill="#fff">94</text><rect x="40" y="364" width="470" height="6" rx="3" fill="#1d2740"/><rect x="40" y="364" width="441.8" height="6" rx="3" fill="url(#acc)"/><text x="40" y="397" font-size="12" font-weight="700" fill="#9fb2d6" letter-spacing="0.4">TYPESCRIPT</text><text x="510" y="397" text-anchor="end" font-size="14" font-weight="900" fill="#fff">93</text><rect x="40" y="402" width="470" height="6" rx="3" fill="#1d2740"/><rect x="40" y="402" width="437.1" height="6" rx="3" fill="url(#acc)"/><text x="40" y="435" font-size="12" font-weight="700" fill="#9fb2d6" letter-spacing="0.4">BACK-END · Node / PG</text><text x="510" y="435" text-anchor="end" font-size="14" font-weight="900" fill="#fff">90</text><rect x="40" y="440" width="470" height="6" rx="3" fill="#1d2740"/><rect x="40" y="440" width="423" height="6" rx="3" fill="url(#acc)"/><text x="40" y="473" font-size="12" font-weight="700" fill="#9fb2d6" letter-spacing="0.4">VISUAL CRAFT</text><text x="510" y="473" text-anchor="end" font-size="14" font-weight="900" fill="#fff">98</text><rect x="40" y="478" width="470" height="6" rx="3" fill="#1d2740"/><rect x="40" y="478" width="460.6" height="6" rx="3" fill="url(#acc)"/><text x="40" y="511" font-size="12" font-weight="700" fill="#9fb2d6" letter-spacing="0.4">SHIPPING</text><text x="510" y="511" text-anchor="end" font-size="14" font-weight="900" fill="#fff">92</text><rect x="40" y="516" width="470" height="6" rx="3" fill="#1d2740"/><rect x="40" y="516" width="432.4" height="6" rx="3" fill="url(#acc)"/><rect x="40" y="566" width="110.4" height="19" rx="9.5" fill="none" stroke="#f2c94c" stroke-width="1"/><text x="95.2" y="579" text-anchor="middle" font-size="9" font-weight="800" fill="#f2c94c">DESIGN MAESTRO</text><rect x="160.39999999999998" y="566" width="103.8" height="19" rx="9.5" fill="none" stroke="#f2c94c" stroke-width="1"/><text x="212.3" y="579" text-anchor="middle" font-size="9" font-weight="800" fill="#f2c94c">PIXEL PERFECT</text><rect x="274.2" y="566" width="84" height="19" rx="9.5" fill="none" stroke="#f2c94c" stroke-width="1"/><text x="316.2" y="579" text-anchor="middle" font-size="9" font-weight="800" fill="#f2c94c">FULL-STACK</text>
    <line x1="40" y1="598" x2="520" y2="598" stroke="#2a3450" stroke-width="1"/>
    <text x="40" y="613" font-size="9" font-weight="700" fill="#7d8aa0" letter-spacing="0.5">OPEN TO PRODUCT-DESIGN &amp; DESIGN-ENGINEER ROLES</text>
    <text x="520" y="613" text-anchor="end" font-size="9" font-weight="800" fill="#1fc7dd">qureshi.ux@gmail.com</text>
    <rect class="sh" x="-140" y="-20" width="120" height="660" transform="skewX(-16)" fill="url(#sh)"/>
  </g><rect x="2.5" y="2.5" width="555" height="615" rx="18" fill="none" stroke="url(#gg)" stroke-width="3"/><rect x="7" y="7" width="546" height="606" rx="14" fill="none" stroke="#1fc7dd" stroke-width="1" opacity="0.5"/>
</svg>