<svg xmlns="http://www.w3.org/2000/svg" viewBox="0 0 460 500" width="460" height="500" role="img" aria-label="Player abilities — Haseeb Qureshi">
  <defs>
    <linearGradient id="sbg" x1="0" y1="0" x2="1" y2="1"><stop offset="0" stop-color="#161d33"/><stop offset="1" stop-color="#0b0f1d"/></linearGradient>
    <linearGradient id="sacc" x1="0" y1="0" x2="1" y2="0"><stop offset="0" stop-color="#1fc7dd"/><stop offset="1" stop-color="#f2c94c"/></linearGradient>
    <linearGradient id="sframe" x1="0" y1="0" x2="1" y2="1"><stop offset="0" stop-color="#ffe9a8"/><stop offset="0.5" stop-color="#f2c94c"/><stop offset="1" stop-color="#b8911f"/></linearGradient>
    <radialGradient id="sglow" cx="80%" cy="14%" r="55%"><stop offset="0" stop-color="#A50044" stop-opacity="0.34"/><stop offset="1" stop-color="#A50044" stop-opacity="0"/></radialGradient>
    <linearGradient id="ssh" x1="0" y1="0" x2="1" y2="1"><stop offset="0" stop-color="#fff" stop-opacity="0"/><stop offset="0.5" stop-color="#fff" stop-opacity="0.28"/><stop offset="1" stop-color="#fff" stop-opacity="0"/></linearGradient>
    <clipPath id="sc"><rect x="0" y="0" width="460" height="500" rx="16"/></clipPath>
    <style>.shine{animation:shine 6s ease-in-out infinite}@keyframes shine{0%,55%{transform:translateX(-260px)}82%,100%{transform:translateX(560px)}} text{font-family:'Sora','Segoe UI',sans-serif}</style>
  </defs>
  <g clip-path="url(#sc)">
    <rect width="460" height="500" fill="url(#sbg)"/>
    <rect width="460" height="500" fill="url(#sglow)"/>
    <rect width="460" height="42" fill="#0d1222"/>
    <rect width="460" height="3" y="42" fill="url(#sacc)"/>
    <text x="24" y="27" font-size="15" font-weight="900" fill="#ffffff" letter-spacing="2">PLAYER ABILITIES</text>
    <text x="436" y="27" text-anchor="end" font-size="12" font-weight="800" fill="#1fc7dd" letter-spacing="1">PERSONAL</text>
    <text x="30" y="66" font-size="11" font-weight="800" fill="#f2c94c" letter-spacing="1.5">107 · PRODUCT EXPERT · RWF</text>
    <line x1="30" y1="74" x2="430" y2="74" stroke="#2a3450" stroke-width="1"/>
    <text x="30" y="105" font-size="11" font-weight="700" fill="#8aa0c8" letter-spacing="0.4">UI / UX DESIGN</text><text x="430" y="105" text-anchor="end" font-size="13" font-weight="900" fill="#ffffff">99</text><rect x="30" y="110" width="400" height="6" rx="3" fill="#222a3c"/><rect x="30" y="110" width="396" height="6" rx="3" fill="url(#sacc)"/><text x="30" y="145" font-size="11" font-weight="700" fill="#8aa0c8" letter-spacing="0.4">INTERACTION & PROTOTYPE</text><text x="430" y="145" text-anchor="end" font-size="13" font-weight="900" fill="#ffffff">96</text><rect x="30" y="150" width="400" height="6" rx="3" fill="#222a3c"/><rect x="30" y="150" width="384" height="6" rx="3" fill="url(#sacc)"/><text x="30" y="185" font-size="11" font-weight="700" fill="#8aa0c8" letter-spacing="0.4">FRONT-END · React / TS</text><text x="430" y="185" text-anchor="end" font-size="13" font-weight="900" fill="#ffffff">95</text><rect x="30" y="190" width="400" height="6" rx="3" fill="#222a3c"/><rect x="30" y="190" width="380" height="6" rx="3" fill="url(#sacc)"/><text x="30" y="225" font-size="11" font-weight="700" fill="#8aa0c8" letter-spacing="0.4">DESIGN SYSTEMS</text><text x="430" y="225" text-anchor="end" font-size="13" font-weight="900" fill="#ffffff">94</text><rect x="30" y="230" width="400" height="6" rx="3" fill="#222a3c"/><rect x="30" y="230" width="376" height="6" rx="3" fill="url(#sacc)"/><text x="30" y="265" font-size="11" font-weight="700" fill="#8aa0c8" letter-spacing="0.4">TYPESCRIPT</text><text x="430" y="265" text-anchor="end" font-size="13" font-weight="900" fill="#ffffff">93</text><rect x="30" y="270" width="400" height="6" rx="3" fill="#222a3c"/><rect x="30" y="270" width="372" height="6" rx="3" fill="url(#sacc)"/><text x="30" y="305" font-size="11" font-weight="700" fill="#8aa0c8" letter-spacing="0.4">BACK-END · Node / PG</text><text x="430" y="305" text-anchor="end" font-size="13" font-weight="900" fill="#ffffff">90</text><rect x="30" y="310" width="400" height="6" rx="3" fill="#222a3c"/><rect x="30" y="310" width="360" height="6" rx="3" fill="url(#sacc)"/><text x="30" y="345" font-size="11" font-weight="700" fill="#8aa0c8" letter-spacing="0.4">VISUAL CRAFT</text><text x="430" y="345" text-anchor="end" font-size="13" font-weight="900" fill="#ffffff">98</text><rect x="30" y="350" width="400" height="6" rx="3" fill="#222a3c"/><rect x="30" y="350" width="392" height="6" rx="3" fill="url(#sacc)"/><text x="30" y="385" font-size="11" font-weight="700" fill="#8aa0c8" letter-spacing="0.4">SHIPPING</text><text x="430" y="385" text-anchor="end" font-size="13" font-weight="900" fill="#ffffff">92</text><rect x="30" y="390" width="400" height="6" rx="3" fill="#222a3c"/><rect x="30" y="390" width="368" height="6" rx="3" fill="url(#sacc)"/>
    <rect x="30" y="450" width="106.2" height="18" rx="9" fill="none" stroke="#f2c94c" stroke-width="1"/><text x="83.1" y="462.5" text-anchor="middle" font-size="8.5" font-weight="800" fill="#f2c94c">DESIGN MAESTRO</text><rect x="145.2" y="450" width="99.9" height="18" rx="9" fill="none" stroke="#f2c94c" stroke-width="1"/><text x="195.15" y="462.5" text-anchor="middle" font-size="8.5" font-weight="800" fill="#f2c94c">PIXEL PERFECT</text><rect x="254.09999999999997" y="450" width="81" height="18" rx="9" fill="none" stroke="#f2c94c" stroke-width="1"/><text x="294.6" y="462.5" text-anchor="middle" font-size="8.5" font-weight="800" fill="#f2c94c">FULL-STACK</text>
    <line x1="30" y1="478" x2="430" y2="478" stroke="#2a3450" stroke-width="1"/>
    <text x="30" y="492" font-size="8.5" font-weight="700" fill="#8aa0c8" letter-spacing="0.5">OPEN TO PRODUCT-DESIGN &amp; DESIGN-ENGINEER ROLES</text>
    <text x="430" y="492" text-anchor="end" font-size="8.5" font-weight="800" fill="#1fc7dd">qureshi.ux@gmail.com</text>
    <rect class="shine" x="-120" y="-20" width="110" height="540" transform="skewX(-16)" fill="url(#ssh)"/>
  </g>
  <rect x="2.5" y="2.5" width="455" height="495" rx="16" fill="none" stroke="url(#sframe)" stroke-width="3"/>
</svg>
