<svg xmlns="http://www.w3.org/2000/svg" viewBox="0 0 760 300" width="760" height="300" role="img" aria-label="Tech stack starting XI, 4-3-3">
  <defs><style>
    @keyframes bob { 0%,100% { transform: translateY(0); } 50% { transform: translateY(-3px); } }
    text { font-family: 'Sora','Poppins','Segoe UI',Verdana,sans-serif; }
  </style>
    <clipPath id="pr"><rect x="0" y="0" width="760" height="300" rx="14"/></clipPath>
  </defs>
  <g clip-path="url(#pr)">
    <rect width="760" height="300" fill="#1f7a37"/>
    <rect x="95" width="95" height="300" fill="#249040"/><rect x="285" width="95" height="300" fill="#249040"/><rect x="475" width="95" height="300" fill="#249040"/><rect x="665" width="95" height="300" fill="#249040"/>
    <g stroke="#ffffff" stroke-opacity="0.4" fill="none" stroke-width="2">
      <rect x="14" y="14" width="732" height="272"/>
      <line x1="380" y1="14" x2="380" y2="286"/>
      <circle cx="380" cy="150" r="46"/>
      <rect x="14" y="80" width="64" height="140"/>
      <rect x="682" y="80" width="64" height="140"/>
    </g>
    <text x="380" y="40" text-anchor="middle" font-size="18" font-weight="900" fill="#ffffff" opacity="0.92" letter-spacing="3" font-family="'Sora',sans-serif">STARTING&#160;XI</text>
    <text x="380" y="58" text-anchor="middle" font-size="11" font-weight="700" fill="#EDBB00" letter-spacing="4" font-family="'Sora',sans-serif">MY STACK · 4-3-3</text>
    
    <g style="animation: bob 1.9s ease-in-out infinite; animation-delay:0.00s;">
      <ellipse cx="70" cy="165" rx="11" ry="4" fill="#000000" opacity="0.18"/>
      <circle cx="70" cy="150" r="13" fill="#004D98" stroke="#EDBB00" stroke-width="1.6"/>
      <rect x="68" y="137" width="4" height="26" fill="#A50044"/>
      <circle cx="70" cy="150" r="13" fill="none" stroke="#06203f" stroke-width="0.8"/>
      <text x="70" y="177" text-anchor="middle" font-size="9.5" font-weight="800" fill="#ffffff">TS</text>
    </g>
    <g style="animation: bob 1.9s ease-in-out infinite; animation-delay:0.13s;">
      <ellipse cx="210" cy="70" rx="11" ry="4" fill="#000000" opacity="0.18"/>
      <circle cx="210" cy="55" r="13" fill="#004D98" stroke="#EDBB00" stroke-width="1.6"/>
      <rect x="208" y="42" width="4" height="26" fill="#A50044"/>
      <circle cx="210" cy="55" r="13" fill="none" stroke="#06203f" stroke-width="0.8"/>
      <text x="210" y="82" text-anchor="middle" font-size="9.5" font-weight="800" fill="#ffffff">Node</text>
    </g>
    <g style="animation: bob 1.9s ease-in-out infinite; animation-delay:0.26s;">
      <ellipse cx="210" cy="133" rx="11" ry="4" fill="#000000" opacity="0.18"/>
      <circle cx="210" cy="118" r="13" fill="#004D98" stroke="#EDBB00" stroke-width="1.6"/>
      <rect x="208" y="105" width="4" height="26" fill="#A50044"/>
      <circle cx="210" cy="118" r="13" fill="none" stroke="#06203f" stroke-width="0.8"/>
      <text x="210" y="145" text-anchor="middle" font-size="9.5" font-weight="800" fill="#ffffff">Express</text>
    </g>
    <g style="animation: bob 1.9s ease-in-out infinite; animation-delay:0.39s;">
      <ellipse cx="210" cy="197" rx="11" ry="4" fill="#000000" opacity="0.18"/>
      <circle cx="210" cy="182" r="13" fill="#004D98" stroke="#EDBB00" stroke-width="1.6"/>
      <rect x="208" y="169" width="4" height="26" fill="#A50044"/>
      <circle cx="210" cy="182" r="13" fill="none" stroke="#06203f" stroke-width="0.8"/>
      <text x="210" y="209" text-anchor="middle" font-size="9.5" font-weight="800" fill="#ffffff">Postgres</text>
    </g>
    <g style="animation: bob 1.9s ease-in-out infinite; animation-delay:0.52s;">
      <ellipse cx="210" cy="260" rx="11" ry="4" fill="#000000" opacity="0.18"/>
      <circle cx="210" cy="245" r="13" fill="#004D98" stroke="#EDBB00" stroke-width="1.6"/>
      <rect x="208" y="232" width="4" height="26" fill="#A50044"/>
      <circle cx="210" cy="245" r="13" fill="none" stroke="#06203f" stroke-width="0.8"/>
      <text x="210" y="272" text-anchor="middle" font-size="9.5" font-weight="800" fill="#ffffff">Prisma</text>
    </g>
    <g style="animation: bob 1.9s ease-in-out infinite; animation-delay:0.65s;">
      <ellipse cx="410" cy="105" rx="11" ry="4" fill="#000000" opacity="0.18"/>
      <circle cx="410" cy="90" r="13" fill="#004D98" stroke="#EDBB00" stroke-width="1.6"/>
      <rect x="408" y="77" width="4" height="26" fill="#A50044"/>
      <circle cx="410" cy="90" r="13" fill="none" stroke="#06203f" stroke-width="0.8"/>
      <text x="410" y="117" text-anchor="middle" font-size="9.5" font-weight="800" fill="#ffffff">React</text>
    </g>
    <g style="animation: bob 1.9s ease-in-out infinite; animation-delay:0.78s;">
      <ellipse cx="410" cy="165" rx="11" ry="4" fill="#000000" opacity="0.18"/>
      <circle cx="410" cy="150" r="13" fill="#004D98" stroke="#EDBB00" stroke-width="1.6"/>
      <rect x="408" y="137" width="4" height="26" fill="#A50044"/>
      <circle cx="410" cy="150" r="13" fill="none" stroke="#06203f" stroke-width="0.8"/>
      <text x="410" y="177" text-anchor="middle" font-size="9.5" font-weight="800" fill="#ffffff">Next.js</text>
    </g>
    <g style="animation: bob 1.9s ease-in-out infinite; animation-delay:0.91s;">
      <ellipse cx="410" cy="225" rx="11" ry="4" fill="#000000" opacity="0.18"/>
      <circle cx="410" cy="210" r="13" fill="#004D98" stroke="#EDBB00" stroke-width="1.6"/>
      <rect x="408" y="197" width="4" height="26" fill="#A50044"/>
      <circle cx="410" cy="210" r="13" fill="none" stroke="#06203f" stroke-width="0.8"/>
      <text x="410" y="237" text-anchor="middle" font-size="9.5" font-weight="800" fill="#ffffff">Zod</text>
    </g>
    <g style="animation: bob 1.9s ease-in-out infinite; animation-delay:1.04s;">
      <ellipse cx="615" cy="87" rx="11" ry="4" fill="#000000" opacity="0.18"/>
      <circle cx="615" cy="72" r="13" fill="#004D98" stroke="#EDBB00" stroke-width="1.6"/>
      <rect x="613" y="59" width="4" height="26" fill="#A50044"/>
      <circle cx="615" cy="72" r="13" fill="none" stroke="#06203f" stroke-width="0.8"/>
      <text x="615" y="99" text-anchor="middle" font-size="9.5" font-weight="800" fill="#ffffff">Figma</text>
    </g>
    <g style="animation: bob 1.9s ease-in-out infinite; animation-delay:1.17s;">
      <ellipse cx="615" cy="165" rx="11" ry="4" fill="#000000" opacity="0.18"/>
      <circle cx="615" cy="150" r="13" fill="#004D98" stroke="#EDBB00" stroke-width="1.6"/>
      <rect x="613" y="137" width="4" height="26" fill="#A50044"/>
      <circle cx="615" cy="150" r="13" fill="none" stroke="#06203f" stroke-width="0.8"/>
      <text x="615" y="177" text-anchor="middle" font-size="9.5" font-weight="800" fill="#ffffff">Tailwind</text>
    </g>
    <g style="animation: bob 1.9s ease-in-out infinite; animation-delay:1.30s;">
      <ellipse cx="615" cy="243" rx="11" ry="4" fill="#000000" opacity="0.18"/>
      <circle cx="615" cy="228" r="13" fill="#004D98" stroke="#EDBB00" stroke-width="1.6"/>
      <rect x="613" y="215" width="4" height="26" fill="#A50044"/>
      <circle cx="615" cy="228" r="13" fill="none" stroke="#06203f" stroke-width="0.8"/>
      <text x="615" y="255" text-anchor="middle" font-size="9.5" font-weight="800" fill="#ffffff">Git</text>
    </g>
  </g>
  <rect x="1.5" y="1.5" width="757" height="297" rx="14" fill="none" stroke="#A50044" stroke-width="2.5"/>
</svg>
