<svg xmlns="http://www.w3.org/2000/svg" viewBox="0 0 800 132" width="800" height="132" role="img" aria-label="Substitutes bench — React, JavaScript, Tailwind, Vite, GitHub, Zod, Drizzle">
  <defs><radialGradient id="vig" cx="50%" cy="30%" r="80%"><stop offset="0" stop-color="#000" stop-opacity="0"/><stop offset="1" stop-color="#000" stop-opacity="0.4"/></radialGradient>
  <linearGradient id="gg" x1="0" y1="0" x2="0" y2="1"><stop offset="0" stop-color="#ffe9a8"/><stop offset="0.5" stop-color="#f2c94c"/><stop offset="1" stop-color="#b8911f"/></linearGradient>
  <clipPath id="sb"><rect width="800" height="132" rx="16"/></clipPath><style>text{font-family:'Sora','Segoe UI',sans-serif}</style></defs>
  <g clip-path="url(#sb)">
    <rect width="800" height="132" fill="#0a0e1c"/>
    <polygon points="0,0 496,0 0,132" fill="#0e1a40"/>
    <polygon points="800,0 800,132 384,132" fill="#2c0a20"/>
    <polygon points="0,0 240,0 0,87.12" fill="#15307a" opacity="0.85"/>
    <polygon points="800,132 800,55.44 592,132" fill="#580a30" opacity="0.85"/>
    <polygon points="368,0 400,0 120,132 88,132" fill="#1fc7dd" opacity="0.15"/>
    <polygon points="456,0 480,0 200,132 176,132" fill="#f2c94c" opacity="0.14"/><rect width="800" height="132" fill="url(#vig)"/>
    <rect width="7" height="132" fill="url(#gg)"/><circle cx="34" cy="36" r="3.5" fill="#1fc7dd"/>
    <text x="52" y="42" font-size="18" font-weight="900" fill="#fff" letter-spacing="3">SUBSTITUTES</text>
    <text x="776" y="41" text-anchor="end" font-size="12" font-weight="800" fill="#f2c94c" letter-spacing="2">BENCH · 7</text>
    <line x1="24" y1="52" x2="776" y2="52" stroke="#243152" stroke-width="1"/>
    <circle cx="86" cy="74" r="17" fill="#fff" stroke="#f2c94c" stroke-width="1.4"/><g transform="translate(74.6,62.6) scale(0.95)"><path d="M14.23 12.004a2.236 2.236 0 0 1-2.235 2.236 2.236 2.236 0 0 1-2.236-2.236 2.236 2.236 0 0 1 2.235-2.236 2.236 2.236 0 0 1 2.236 2.236zm2.648-10.69c-1.346 0-3.107.96-4.888 2.622-1.78-1.653-3.542-2.602-4.887-2.602-.41 0-.783.093-1.106.278-1.375.793-1.683 3.264-.973 6.365C1.98 8.917 0 10.42 0 12.004c0 1.59 1.99 3.097 5.043 4.03-.704 3.113-.39 5.588.988 6.38.32.187.69.275 1.102.275 1.345 0 3.107-.96 4.888-2.624 1.78 1.654 3.542 2.603 4.887 2.603.41 0 .783-.09 1.106-.275 1.374-.792 1.683-3.263.973-6.365C22.02 15.096 24 13.59 24 12.004c0-1.59-1.99-3.097-5.043-4.032.704-3.11.39-5.587-.988-6.38-.318-.184-.688-.277-1.092-.278zm-.005 1.09v.006c.225 0 .406.044.558.127.666.382.955 1.835.73 3.704-.054.46-.142.945-.25 1.44-.96-.236-2.006-.417-3.107-.534-.66-.905-1.345-1.727-2.035-2.447 1.592-1.48 3.087-2.292 4.105-2.295zm-9.77.02c1.012 0 2.514.808 4.11 2.28-.686.72-1.37 1.537-2.02 2.442-1.107.117-2.154.298-3.113.538-.112-.49-.195-.964-.254-1.42-.23-1.868.054-3.32.714-3.707.19-.09.4-.127.563-.132zm4.882 3.05c.455.468.91.992 1.36 1.564-.44-.02-.89-.034-1.345-.034-.46 0-.915.01-1.36.034.44-.572.895-1.096 1.345-1.565zM12 8.1c.74 0 1.477.034 2.202.093.406.582.802 1.203 1.183 1.86.372.64.71 1.29 1.018 1.946-.308.655-.646 1.31-1.013 1.95-.38.66-.773 1.288-1.18 1.87-.728.063-1.466.098-2.21.098-.74 0-1.477-.035-2.202-.093-.406-.582-.802-1.204-1.183-1.86-.372-.64-.71-1.29-1.018-1.946.303-.657.646-1.313 1.013-1.954.38-.66.773-1.286 1.18-1.868.728-.064 1.466-.098 2.21-.098zm-3.635.254c-.24.377-.48.763-.704 1.16-.225.39-.435.782-.635 1.174-.265-.656-.49-1.31-.676-1.947.64-.15 1.315-.283 2.015-.386zm7.26 0c.695.103 1.365.23 2.006.387-.18.632-.405 1.282-.66 1.933-.2-.39-.41-.783-.64-1.174-.225-.392-.465-.774-.705-1.146zm3.063.675c.484.15.944.317 1.375.498 1.732.74 2.852 1.708 2.852 2.476-.005.768-1.125 1.74-2.857 2.475-.42.18-.88.342-1.355.493-.28-.958-.646-1.956-1.1-2.98.45-1.017.81-2.01 1.085-2.964zm-13.395.004c.278.96.645 1.957 1.1 2.98-.45 1.017-.812 2.01-1.086 2.964-.484-.15-.944-.318-1.37-.5-1.732-.737-2.852-1.706-2.852-2.474 0-.768 1.12-1.742 2.852-2.476.42-.18.88-.342 1.356-.494zm11.678 4.28c.265.657.49 1.312.676 1.948-.64.157-1.316.29-2.016.39.24-.375.48-.762.705-1.158.225-.39.435-.788.636-1.18zm-9.945.02c.2.392.41.783.64 1.175.23.39.465.772.705 1.143-.695-.102-1.365-.23-2.006-.386.18-.63.406-1.282.66-1.933zM17.92 16.32c.112.493.2.968.254 1.423.23 1.868-.054 3.32-.714 3.708-.147.09-.338.128-.563.128-1.012 0-2.514-.807-4.11-2.28.686-.72 1.37-1.536 2.02-2.44 1.107-.118 2.154-.3 3.113-.54zm-11.83.01c.96.234 2.006.415 3.107.532.66.905 1.345 1.727 2.035 2.446-1.595 1.483-3.092 2.295-4.11 2.295-.22-.005-.406-.05-.553-.132-.666-.38-.955-1.834-.73-3.703.054-.46.142-.944.25-1.438zm4.56.64c.44.02.89.034 1.345.034.46 0 .915-.01 1.36-.034-.44.572-.895 1.095-1.345 1.565-.455-.47-.91-.993-1.36-1.565z" fill="#61DAFB"/></g><text x="86" y="104" text-anchor="middle" font-size="9.5" font-weight="800" fill="#fff">React</text>
    <circle cx="190.67" cy="74" r="17" fill="#fff" stroke="#f2c94c" stroke-width="1.4"/><g transform="translate(179.26999999999998,62.6) scale(0.95)"><path d="M0 0h24v24H0V0zm22.034 18.276c-.175-1.095-.888-2.015-3.003-2.873-.736-.345-1.554-.585-1.797-1.14-.091-.33-.105-.51-.046-.705.15-.646.915-.84 1.515-.66.39.12.75.42.976.9 1.034-.676 1.034-.676 1.755-1.125-.27-.42-.404-.601-.586-.78-.63-.705-1.469-1.065-2.834-1.034l-.705.089c-.676.165-1.32.525-1.71 1.005-1.14 1.291-.811 3.541.569 4.471 1.365 1.02 3.361 1.244 3.616 2.205.24 1.17-.87 1.545-1.966 1.41-.811-.18-1.26-.586-1.755-1.336l-1.83 1.051c.21.48.45.689.81 1.109 1.74 1.756 6.09 1.666 6.871-1.004.029-.09.24-.705.074-1.65l.046.067zm-8.983-7.245h-2.248c0 1.938-.009 3.864-.009 5.805 0 1.232.063 2.363-.138 2.711-.33.689-1.18.601-1.566.48-.396-.196-.597-.466-.83-.855-.063-.105-.11-.196-.127-.196l-1.825 1.125c.305.63.75 1.172 1.324 1.517.855.51 2.004.675 3.207.405.783-.226 1.458-.691 1.811-1.411.51-.93.402-2.07.397-3.346.012-2.054 0-4.109 0-6.179l.004-.056z" fill="#F7DF1E"/></g><text x="190.67" y="104" text-anchor="middle" font-size="9.5" font-weight="800" fill="#fff">JavaScript</text>
    <circle cx="295.33" cy="74" r="17" fill="#fff" stroke="#f2c94c" stroke-width="1.4"/><g transform="translate(283.93,62.6) scale(0.95)"><path d="M12.001,4.8c-3.2,0-5.2,1.6-6,4.8c1.2-1.6,2.6-2.2,4.2-1.8c0.913,0.228,1.565,0.89,2.288,1.624 C13.666,10.618,15.027,12,18.001,12c3.2,0,5.2-1.6,6-4.8c-1.2,1.6-2.6,2.2-4.2,1.8c-0.913-0.228-1.565-0.89-2.288-1.624 C16.337,6.182,14.976,4.8,12.001,4.8z M6.001,12c-3.2,0-5.2,1.6-6,4.8c1.2-1.6,2.6-2.2,4.2-1.8c0.913,0.228,1.565,0.89,2.288,1.624 c1.177,1.194,2.538,2.576,5.512,2.576c3.2,0,5.2-1.6,6-4.8c-1.2,1.6-2.6,2.2-4.2,1.8c-0.913-0.228-1.565-0.89-2.288-1.624 C10.337,13.382,8.976,12,6.001,12z" fill="#06B6D4"/></g><text x="295.33" y="104" text-anchor="middle" font-size="9.5" font-weight="800" fill="#fff">Tailwind</text>
    <circle cx="400" cy="74" r="17" fill="#fff" stroke="#f2c94c" stroke-width="1.4"/><g transform="translate(388.6,62.6) scale(0.95)"><path d="M13.056 23.238a.57.57 0 0 1-1.02-.355v-5.202c0-.63-.512-1.143-1.144-1.143H5.148a.57.57 0 0 1-.464-.903l3.777-5.29c.54-.753 0-1.804-.93-1.804H.57a.574.574 0 0 1-.543-.746.6.6 0 0 1 .08-.157L5.008.78a.57.57 0 0 1 .467-.24h14.589a.57.57 0 0 1 .466.903l-3.778 5.29c-.54.755 0 1.806.93 1.806h5.745c.238 0 .424.138.513.322a.56.56 0 0 1-.063.603z" fill="#9135FF"/></g><text x="400" y="104" text-anchor="middle" font-size="9.5" font-weight="800" fill="#fff">Vite</text>
    <circle cx="504.67" cy="74" r="17" fill="#fff" stroke="#f2c94c" stroke-width="1.4"/><g transform="translate(493.27000000000004,62.6) scale(0.95)"><path d="M12 .297c-6.63 0-12 5.373-12 12 0 5.303 3.438 9.8 8.205 11.385.6.113.82-.258.82-.577 0-.285-.01-1.04-.015-2.04-3.338.724-4.042-1.61-4.042-1.61C4.422 18.07 3.633 17.7 3.633 17.7c-1.087-.744.084-.729.084-.729 1.205.084 1.838 1.236 1.838 1.236 1.07 1.835 2.809 1.305 3.495.998.108-.776.417-1.305.76-1.605-2.665-.3-5.466-1.332-5.466-5.93 0-1.31.465-2.38 1.235-3.22-.135-.303-.54-1.523.105-3.176 0 0 1.005-.322 3.3 1.23.96-.267 1.98-.399 3-.405 1.02.006 2.04.138 3 .405 2.28-1.552 3.285-1.23 3.285-1.23.645 1.653.24 2.873.12 3.176.765.84 1.23 1.91 1.23 3.22 0 4.61-2.805 5.625-5.475 5.92.42.36.81 1.096.81 2.22 0 1.606-.015 2.896-.015 3.286 0 .315.21.69.825.57C20.565 22.092 24 17.592 24 12.297c0-6.627-5.373-12-12-12" fill="#181717"/></g><text x="504.67" y="104" text-anchor="middle" font-size="9.5" font-weight="800" fill="#fff">GitHub</text>
    <circle cx="609.33" cy="74" r="17" fill="#fff" stroke="#f2c94c" stroke-width="1.4"/><g transform="translate(597.9300000000001,62.6) scale(0.95)"><path d="M2.584 3.582a2.247 2.247 0 0 1 2.112-1.479h14.617c.948 0 1.794.595 2.115 1.487l2.44 6.777a2.248 2.248 0 0 1-.624 2.443l-9.61 8.52a2.247 2.247 0 0 1-2.963.018L.776 12.773a2.248 2.248 0 0 1-.64-2.467Zm12.038 4.887-9.11 5.537 5.74 5.007c.456.399 1.139.396 1.593-.006l5.643-5.001H14.4l6.239-3.957c.488-.328.69-.947.491-1.5l-1.24-3.446a1.535 1.535 0 0 0-1.456-1.015H5.545a1.535 1.535 0 0 0-1.431 1.01l-1.228 3.37z" fill="#408AFF"/></g><text x="609.33" y="104" text-anchor="middle" font-size="9.5" font-weight="800" fill="#fff">Zod</text>
    <circle cx="714" cy="74" r="17" fill="#fff" stroke="#f2c94c" stroke-width="1.4"/><g transform="translate(702.6,62.6) scale(0.95)"><path d="M5.353 11.823a1.036 1.036 0 0 0-.395-1.422 1.063 1.063 0 0 0-1.437.399L.138 16.702a1.035 1.035 0 0 0 .395 1.422 1.063 1.063 0 0 0 1.437-.398l3.383-5.903Zm11.216 0a1.036 1.036 0 0 0-.394-1.422 1.064 1.064 0 0 0-1.438.399l-3.382 5.902a1.036 1.036 0 0 0 .394 1.422c.506.283 1.15.104 1.438-.398l3.382-5.903Zm7.293-4.525a1.036 1.036 0 0 0-.395-1.422 1.062 1.062 0 0 0-1.437.399l-3.383 5.902a1.036 1.036 0 0 0 .395 1.422 1.063 1.063 0 0 0 1.437-.399l3.383-5.902Zm-11.219 0a1.035 1.035 0 0 0-.394-1.422 1.064 1.064 0 0 0-1.438.398l-3.382 5.903a1.036 1.036 0 0 0 .394 1.422c.506.282 1.15.104 1.438-.399l3.382-5.902Z" fill="#C5F74F"/></g><text x="714" y="104" text-anchor="middle" font-size="9.5" font-weight="800" fill="#fff">Drizzle</text>
  </g><rect x="2.5" y="2.5" width="795" height="127" rx="16" fill="none" stroke="url(#gg)" stroke-width="3"/><rect x="7" y="7" width="786" height="118" rx="12" fill="none" stroke="#1fc7dd" stroke-width="1" opacity="0.5"/></svg>